<?xml version="1.0" encoding="UTF-8" standalone="no"?>
<!DOCTYPE svg PUBLIC "-//W3C//DTD SVG 1.0//EN" "http://www.w3.org/TR/2001/PR-SVG-20010719/DTD/svg10.dtd">
<svg width="30cm" height="23cm" viewBox="140 68 589 447" xmlns="http://www.w3.org/2000/svg" xmlns:xlink="http://www.w3.org/1999/xlink">
  <text font-size="12.8" style="fill: #000000;text-anchor:start;font-family:sans-serif;font-style:normal;font-weight:normal" x="141" y="128">
    <tspan x="141" y="128">GET http://download.opensuse.org/tumbleweed/repo/oss/repodata/repomd.xml</tspan>
  </text>
  <text font-size="12.8" style="fill: #000000;text-anchor:start;font-family:sans-serif;font-style:normal;font-weight:normal" x="140.2" y="224.288">
    <tspan x="140.2" y="224.288">GET http://127.0.0.1:7080/download.opensuse.org/tumbleweed/repo/oss/repodata/repomd.xml</tspan>
  </text>
  <g>
    <rect style="fill: #ffffff" x="208.189" y="69" width="283" height="28"/>
    <rect style="fill: none; fill-opacity:0; stroke-width: 2; stroke: #000000" x="208.189" y="69" width="283" height="28"/>
  </g>
  <g>
    <rect style="fill: #ffffff" x="208.2" y="153.7" width="283" height="28"/>
    <rect style="fill: none; fill-opacity:0; stroke-width: 2; stroke: #000000" x="208.2" y="153.7" width="283" height="28"/>
  </g>
  <g>
    <rect style="fill: #ffffff" x="208.4" y="259.4" width="283" height="28"/>
    <rect style="fill: none; fill-opacity:0; stroke-width: 2; stroke: #000000" x="208.4" y="259.4" width="283" height="28"/>
  </g>
  <text font-size="12.8" style="fill: #000000;text-anchor:middle;font-family:sans-serif;font-style:normal;font-weight:normal" x="349.9" y="277.838">
    <tspan x="349.9" y="277.838">distributor-proxy.pl</tspan>
  </text>
  <text font-size="12.8" style="fill: #000000;text-anchor:middle;font-family:sans-serif;font-style:normal;font-weight:normal" x="349.7" y="172.137">
    <tspan x="349.7" y="172.137">local nginx cache</tspan>
  </text>
  <text font-size="12.8" style="fill: #000000;text-anchor:middle;font-family:sans-serif;font-style:normal;font-weight:normal" x="349.689" y="87.4375">
    <tspan x="349.689" y="87.4375">zypper/libzypp/libcurl</tspan>
  </text>
  <g>
    <line style="fill: none; fill-opacity:0; stroke-width: 2; stroke: #000000" x1="349.689" y1="97" x2="349.698" y2="143.964"/>
    <polygon style="fill: #000000" points="349.7,151.464 344.698,141.465 349.698,143.964 354.698,141.463 "/>
    <polygon style="fill: none; fill-opacity:0; stroke-width: 2; stroke: #000000" points="349.7,151.464 344.698,141.465 349.698,143.964 354.698,141.463 "/>
  </g>
  <text font-size="12.8" style="fill: #000000;text-anchor:start;font-family:sans-serif;font-style:normal;font-weight:normal" x="177.045" y="221.154">
    <tspan x="177.045" y="221.154"></tspan>
  </text>
  <text font-size="12.8" style="fill: #000000;text-anchor:start;font-family:sans-serif;font-style:normal;font-weight:normal" x="145.914" y="318.578">
    <tspan x="145.914" y="318.578">GET http://mirror1.fqdn/pub/opensuse/tumbleweed/repo/oss/repodata/repomd.xml</tspan>
  </text>
  <text font-size="12.8" style="fill: #000000;text-anchor:start;font-family:sans-serif;font-style:normal;font-weight:normal" x="146.762" y="372.38">
    <tspan x="146.762" y="372.38">HEAD http://downloadcontent2.opensuse.org/tumbleweed/repo/oss/repodata/repomd.xml</tspan>
  </text>
  <g>
    <rect style="fill: #ffffff" x="208.066" y="394.496" width="283" height="28"/>
    <rect style="fill: none; fill-opacity:0; stroke-width: 2; stroke: #000000" x="208.066" y="394.496" width="283" height="28"/>
  </g>
  <text font-size="12.8" style="fill: #000000;text-anchor:middle;font-family:sans-serif;font-style:normal;font-weight:normal" x="349.566" y="412.933">
    <tspan x="349.566" y="412.933">downloadcontent2.o.o (public nginx cache)</tspan>
  </text>
  <text font-size="12.8" style="fill: #000000;text-anchor:start;font-family:sans-serif;font-style:normal;font-weight:normal" x="341.782" y="408.558">
    <tspan x="341.782" y="408.558"></tspan>
  </text>
  <text font-size="12.8" style="fill: #000000;text-anchor:start;font-family:sans-serif;font-style:normal;font-weight:normal" x="360.166" y="408.558">
    <tspan x="360.166" y="408.558"></tspan>
  </text>
  <text font-size="12.8" style="fill: #000000;text-anchor:start;font-family:sans-serif;font-style:normal;font-weight:normal" x="147.469" y="462.36">
    <tspan x="147.469" y="462.36">HEAD http://downloadcontent.opensuse.org/pub/opensuse/tumbleweed/repo/oss/repodata/repomd.xml</tspan>
  </text>
  <text font-size="12.8" style="fill: #000000;text-anchor:start;font-family:sans-serif;font-style:normal;font-weight:normal" x="320.568" y="459.47">
    <tspan x="320.568" y="459.47"></tspan>
  </text>
  <text font-size="12.8" style="fill: #000000;text-anchor:start;font-family:sans-serif;font-style:normal;font-weight:normal" x="378.552" y="408.558">
    <tspan x="378.552" y="408.558"></tspan>
  </text>
  <text font-size="12.8" style="fill: #000000;text-anchor:start;font-family:sans-serif;font-style:normal;font-weight:normal" x="349.566" y="408.496">
    <tspan x="349.566" y="408.496"></tspan>
  </text>
  <g>
    <rect style="fill: #ffffff" x="208.152" y="485.942" width="283" height="28"/>
    <rect style="fill: none; fill-opacity:0; stroke-width: 2; stroke: #000000" x="208.152" y="485.942" width="283" height="28"/>
  </g>
  <text font-size="12.8" style="fill: #000000;text-anchor:middle;font-family:sans-serif;font-style:normal;font-weight:normal" x="349.652" y="504.38">
    <tspan x="349.652" y="504.38">downloadcontent.o.o (origin, nginx)</tspan>
  </text>
  <text font-size="12.8" style="fill: #000000;text-anchor:start;font-family:sans-serif;font-style:normal;font-weight:normal" x="342.368" y="500.002">
    <tspan x="342.368" y="500.002"></tspan>
  </text>
  <text font-size="12.8" style="fill: #000000;text-anchor:start;font-family:sans-serif;font-style:normal;font-weight:normal" x="379.138" y="500.002">
    <tspan x="379.138" y="500.002"></tspan>
  </text>
  <text font-size="12.8" style="fill: #000000;text-anchor:start;font-family:sans-serif;font-style:normal;font-weight:normal" x="349.652" y="499.942">
    <tspan x="349.652" y="499.942"></tspan>
  </text>
  <g>
    <line style="fill: none; fill-opacity:0; stroke-width: 2; stroke: #000000" x1="349.7" y1="181.7" x2="349.875" y2="249.664"/>
    <polygon style="fill: #000000" points="349.894,257.164 344.869,247.177 349.875,249.664 354.868,247.151 "/>
    <polygon style="fill: none; fill-opacity:0; stroke-width: 2; stroke: #000000" points="349.894,257.164 344.869,247.177 349.875,249.664 354.868,247.151 "/>
  </g>
  <g>
    <line style="fill: none; fill-opacity:0; stroke-width: 2; stroke: #000000" x1="349.9" y1="287.4" x2="349.597" y2="384.76"/>
    <polygon style="fill: #000000" points="349.573,392.26 344.605,382.244 349.597,384.76 354.605,382.276 "/>
    <polygon style="fill: none; fill-opacity:0; stroke-width: 2; stroke: #000000" points="349.573,392.26 344.605,382.244 349.597,384.76 354.605,382.276 "/>
  </g>
  <g>
    <line style="fill: none; fill-opacity:0; stroke-width: 2; stroke: #000000" x1="349.566" y1="422.496" x2="349.639" y2="476.206"/>
    <polygon style="fill: #000000" points="349.649,483.706 344.636,473.713 349.639,476.206 354.636,473.699 "/>
    <polygon style="fill: none; fill-opacity:0; stroke-width: 2; stroke: #000000" points="349.649,483.706 344.636,473.713 349.639,476.206 354.636,473.699 "/>
  </g>
  <text font-size="12.8" style="fill: #000000;text-anchor:start;font-family:sans-serif;font-style:normal;font-weight:normal" x="146.948" y="346.184">
    <tspan x="146.948" y="346.184">HEAD http://mirror2.fqdn/pub/opensuse/tumbleweed/repo/oss/repodata/repomd.xml</tspan>
  </text>
</svg>
